<svg width="19" height="19" viewBox="0 0 19 19" fill="none" xmlns="http://www.w3.org/2000/svg">
<path d="M18.6534 1.44753L17.5537 0.347925C17.4435 0.237621 17.3125 0.150121 17.1684 0.0904237C17.0243 0.0307262 16.8699 0 16.7139 0C16.5579 0 16.4035 0.0307262 16.2594 0.0904237C16.1153 0.150121 15.9844 0.237621 15.8741 0.347925L14.1566 2.06729C14.0126 2.21087 13.9042 2.38612 13.84 2.57906L13.3887 3.93399L10.5586 6.7641C10.1074 6.439 9.61229 6.17997 9.07047 6.05379C7.8291 5.76506 6.58401 6.02113 5.7349 6.87024C5.38852 7.21803 5.13089 7.64406 4.98377 8.11235C4.7611 8.80114 4.12242 9.32552 3.41953 9.39121C2.53999 9.47545 1.72243 9.81613 1.09599 10.4467C-0.597769 12.1356 -0.293085 15.1787 1.76585 17.2365C3.82479 19.2944 6.86569 19.595 8.55648 17.9071C9.18737 17.2807 9.52731 16.4635 9.61229 15.5799C9.67761 14.8803 10.202 14.2391 10.89 14.016C11.3584 13.8686 11.7845 13.6109 12.1325 13.2645C12.9813 12.4154 13.2362 11.1729 12.949 9.93377C12.8232 9.39047 12.5641 8.89466 12.2379 8.4419L15.0673 5.61253L16.4211 5.16126C16.614 5.09708 16.7893 4.98867 16.9329 4.8447L18.6522 3.12571C18.8747 2.9032 18.9998 2.60149 19 2.28685C19.0002 1.97221 18.8755 1.67034 18.6534 1.44753ZM7.71925 13.0634C7.36693 13.0634 7.02253 12.9589 6.72959 12.7632C6.43664 12.5674 6.20833 12.2892 6.0735 11.9637C5.93867 11.6382 5.9034 11.2801 5.97213 10.9345C6.04086 10.589 6.21052 10.2716 6.45965 10.0224C6.70877 9.7733 7.02618 9.60365 7.37172 9.53491C7.71727 9.46618 8.07544 9.50146 8.40094 9.63628C8.72643 9.77111 9.00464 9.99943 9.20038 10.2924C9.39612 10.5853 9.50059 10.9297 9.50059 11.282C9.50059 11.7545 9.31291 12.2076 8.97885 12.5416C8.64478 12.8757 8.19169 13.0634 7.71925 13.0634Z" fill="#FFF1F1"/>
</svg>
