<svg width="19" height="15" viewBox="0 0 19 15" fill="none" xmlns="http://www.w3.org/2000/svg">
<path d="M17.886 0.00179138C16.0784 0.10438 12.4855 0.477789 10.2674 1.83552C10.1144 1.9292 10.0276 2.09579 10.0276 2.26996V14.2728C10.0276 14.6538 10.4442 14.8946 10.7956 14.7178C13.0776 13.5692 16.3779 13.2558 18.0097 13.1701C18.5669 13.1407 19 12.6941 19 12.1587V1.01448C19.0003 0.430288 18.4937 -0.0325148 17.886 0.00179138ZM8.73257 1.83552C6.51487 0.477789 2.92196 0.10471 1.11429 0.00179138C0.506675 -0.0325148 0 0.430288 0 1.01448V12.159C0 12.6947 0.433115 13.1414 0.99026 13.1704C2.62277 13.2562 5.92474 13.5699 8.20676 14.7191C8.55708 14.8956 8.97238 14.6551 8.97238 14.2751V2.26402C8.97238 2.08952 8.88595 1.92953 8.73257 1.83552Z" fill="#FFF1F1"/>
</svg>
