<svg width="19" height="15" viewBox="0 0 19 15" fill="none" xmlns="http://www.w3.org/2000/svg">
<path d="M9.2481 3.76931L3.16692 8.69462V14.0104C3.16692 14.1481 3.22252 14.2801 3.32149 14.3774C3.42046 14.4747 3.55469 14.5294 3.69465 14.5294L7.39079 14.52C7.5303 14.5193 7.66385 14.4643 7.76225 14.3671C7.86065 14.2698 7.91589 14.1382 7.91589 14.001V10.8967C7.91589 10.759 7.97149 10.627 8.07046 10.5297C8.16943 10.4324 8.30366 10.3777 8.44363 10.3777H10.5546C10.6945 10.3777 10.8288 10.4324 10.9277 10.5297C11.0267 10.627 11.0823 10.759 11.0823 10.8967V13.9988C11.0821 14.0671 11.0956 14.1347 11.122 14.1979C11.1484 14.261 11.1873 14.3184 11.2363 14.3668C11.2853 14.4151 11.3436 14.4535 11.4077 14.4797C11.4718 14.5059 11.5406 14.5194 11.6101 14.5194L15.3049 14.5294C15.4448 14.5294 15.5791 14.4747 15.678 14.3774C15.777 14.2801 15.8326 14.1481 15.8326 14.0104V8.69105L9.75275 3.76931C9.68127 3.71265 9.59223 3.68176 9.50042 3.68176C9.40861 3.68176 9.31957 3.71265 9.2481 3.76931ZM18.8539 7.11696L16.0965 4.88184V0.389224C16.0965 0.285995 16.0548 0.186995 15.9805 0.114001C15.9063 0.0410075 15.8056 0 15.7007 0H13.8536C13.7486 0 13.6479 0.0410075 13.5737 0.114001C13.4995 0.186995 13.4578 0.285995 13.4578 0.389224V2.74435L10.5048 0.355167C10.2214 0.125842 9.86578 0.000458423 9.49877 0.000458423C9.13177 0.000458423 8.77616 0.125842 8.49277 0.355167L0.143643 7.11696C0.103564 7.14954 0.0704047 7.18956 0.0460602 7.23474C0.0217157 7.27993 0.00666293 7.32938 0.00176203 7.38029C-0.00313887 7.43119 0.00220814 7.48255 0.0174975 7.53142C0.0327869 7.5803 0.057719 7.62573 0.0908693 7.66512L0.93195 8.67062C0.96501 8.71015 1.00567 8.74288 1.05161 8.76693C1.09755 8.79099 1.14787 8.8059 1.19967 8.81081C1.25148 8.81572 1.30377 8.81054 1.35353 8.79555C1.4033 8.78057 1.44957 8.75608 1.4897 8.72348L9.2481 2.43946C9.31957 2.38281 9.40861 2.35191 9.50042 2.35191C9.59223 2.35191 9.68127 2.38281 9.75275 2.43946L17.5115 8.72348C17.5515 8.75608 17.5977 8.7806 17.6474 8.79564C17.6971 8.81067 17.7493 8.81593 17.8011 8.81111C17.8529 8.80629 17.9032 8.79149 17.9491 8.76755C17.9951 8.74361 18.0358 8.711 18.0689 8.67159L18.91 7.66609C18.9431 7.62647 18.9679 7.58081 18.983 7.53172C18.9981 7.48263 19.0032 7.43109 18.998 7.38006C18.9928 7.32904 18.9774 7.27952 18.9527 7.23437C18.9279 7.18922 18.8944 7.14932 18.8539 7.11696Z" fill="#FFF1F1"/>
</svg>
