<svg width="22" height="22" viewBox="0 0 22 22" fill="none" xmlns="http://www.w3.org/2000/svg">
<path d="M11.4757 4.25806C9.22657 4.25806 7.40179 6.16532 7.40179 8.51613C7.40179 10.8669 9.22657 12.7742 11.4757 12.7742C13.7249 12.7742 15.5496 10.8669 15.5496 8.51613C15.5496 6.16532 13.7249 4.25806 11.4757 4.25806ZM11.4757 10.6452C10.3511 10.6452 9.43875 9.69153 9.43875 8.51613C9.43875 7.34073 10.3511 6.3871 11.4757 6.3871C12.6003 6.3871 13.5127 7.34073 13.5127 8.51613C13.5127 9.69153 12.6003 10.6452 11.4757 10.6452ZM11.4757 0C5.66189 0 0.951416 4.92339 0.951416 11C0.951416 17.0766 5.66189 22 11.4757 22C17.2895 22 22 17.0766 22 11C22 4.92339 17.2895 0 11.4757 0ZM11.4757 19.871C9.36661 19.871 7.43998 19.0593 5.9547 17.7242C6.58701 16.704 7.66914 16.0121 8.90829 15.9722C9.79097 16.256 10.6312 16.398 11.4757 16.398C12.3202 16.398 13.1604 16.2605 14.0431 15.9722C15.2823 16.0165 16.3644 16.704 16.9967 17.7242C15.5114 19.0593 13.5848 19.871 11.4757 19.871ZM18.3802 16.1407C17.3447 14.748 15.7448 13.8387 13.9201 13.8387C13.4872 13.8387 12.8167 14.2645 11.4757 14.2645C10.139 14.2645 9.46421 13.8387 9.03136 13.8387C7.21082 13.8387 5.61096 14.748 4.57126 16.1407C3.57825 14.6903 2.98838 12.9161 2.98838 11C2.98838 6.10766 6.79494 2.12903 11.4757 2.12903C16.1565 2.12903 19.963 6.10766 19.963 11C19.963 12.9161 19.3732 14.6903 18.3802 16.1407Z" fill="#040404"/>
</svg>
