<svg width="21" height="24" viewBox="0 0 21 24" fill="none" xmlns="http://www.w3.org/2000/svg">
<path d="M3 10.5H3.63281C4.79063 13.1484 7.425 15 10.5 15C13.575 15 16.2094 13.1484 17.3672 10.5H18C18.4125 10.5 18.75 10.1625 18.75 9.75V5.25C18.75 4.8375 18.4125 4.5 18 4.5H17.3672C16.2094 1.85156 13.575 0 10.5 0C7.425 0 4.79063 1.85156 3.63281 4.5H3C2.5875 4.5 2.25 4.8375 2.25 5.25V9.75C2.25 10.1625 2.5875 10.5 3 10.5ZM4.875 6.375C4.875 5.33906 5.88281 4.5 7.125 4.5H13.875C15.1172 4.5 16.125 5.33906 16.125 6.375V7.5C16.125 9.98438 14.1094 12 11.625 12H9.375C6.89062 12 4.875 9.98438 4.875 7.5V6.375ZM8.25 9.75L8.8125 8.0625L10.5 7.5L8.8125 6.9375L8.25 5.25L7.6875 6.9375L6 7.5L7.6875 8.0625L8.25 9.75ZM15.3563 15.0656C13.9547 15.9703 12.2906 16.5 10.5 16.5C8.70938 16.5 7.04531 15.9703 5.64375 15.0656C2.47969 15.3984 0 18.0469 0 21.3V21.75C0 22.9922 1.00781 24 2.25 24H6V21C6 20.1703 6.67031 19.5 7.5 19.5H13.5C14.3297 19.5 15 20.1703 15 21V24H18.75C19.9922 24 21 22.9922 21 21.75V21.3C21 18.0469 18.5203 15.3984 15.3563 15.0656ZM12.75 21C12.3375 21 12 21.3375 12 21.75C12 22.1625 12.3375 22.5 12.75 22.5C13.1625 22.5 13.5 22.1625 13.5 21.75C13.5 21.3375 13.1625 21 12.75 21ZM8.25 21C7.8375 21 7.5 21.3375 7.5 21.75V24H9V21.75C9 21.3375 8.6625 21 8.25 21Z" fill="#FFF1F1"/>
</svg>
