<svg width="19" height="13" viewBox="0 0 19 13" fill="none" xmlns="http://www.w3.org/2000/svg">
<path d="M2.78571 5.57143C3.81005 5.57143 4.64286 4.73862 4.64286 3.71429C4.64286 2.68996 3.81005 1.85714 2.78571 1.85714C1.76138 1.85714 0.928572 2.68996 0.928572 3.71429C0.928572 4.73862 1.76138 5.57143 2.78571 5.57143ZM15.7857 5.57143C16.81 5.57143 17.6429 4.73862 17.6429 3.71429C17.6429 2.68996 16.81 1.85714 15.7857 1.85714C14.7614 1.85714 13.9286 2.68996 13.9286 3.71429C13.9286 4.73862 14.7614 5.57143 15.7857 5.57143ZM16.7143 6.5H14.8571C14.3464 6.5 13.885 6.70603 13.5484 7.03973C14.7179 7.68103 15.5478 8.83884 15.7277 10.2143H17.6429C18.1565 10.2143 18.5714 9.79933 18.5714 9.28571V8.35714C18.5714 7.33281 17.7386 6.5 16.7143 6.5ZM9.28572 6.5C11.0819 6.5 12.5357 5.04621 12.5357 3.25C12.5357 1.45379 11.0819 0 9.28572 0C7.48951 0 6.03572 1.45379 6.03572 3.25C6.03572 5.04621 7.48951 6.5 9.28572 6.5ZM11.5143 7.42857H11.2734C10.6699 7.71875 9.99955 7.89286 9.28572 7.89286C8.57188 7.89286 7.90447 7.71875 7.29799 7.42857H7.05714C5.21161 7.42857 3.71429 8.92589 3.71429 10.7714V11.6071C3.71429 12.3761 4.33817 13 5.10714 13H13.4643C14.2333 13 14.8571 12.3761 14.8571 11.6071V10.7714C14.8571 8.92589 13.3598 7.42857 11.5143 7.42857ZM5.02299 7.03973C4.68638 6.70603 4.225 6.5 3.71429 6.5H1.85714C0.832813 6.5 0 7.33281 0 8.35714V9.28571C0 9.79933 0.414955 10.2143 0.928572 10.2143H2.84085C3.02366 8.83884 3.85357 7.68103 5.02299 7.03973Z" fill="#FFF1F1"/>
</svg>
