<svg width="31" height="28" viewBox="0 0 31 28" fill="none" xmlns="http://www.w3.org/2000/svg">
<path d="M28.48 0.0809559L9.10686 5.24868C8.7136 5.36026 8.36999 5.58223 8.12597 5.88231C7.88195 6.1824 7.75025 6.54496 7.75 6.91729V21.214C7.11556 21.0749 6.46535 21.0029 5.8125 20.9996C2.60352 20.9996 0 22.567 0 24.4998C0 26.4326 2.60352 28 5.8125 28C9.02148 28 11.625 26.4326 11.625 24.4998V11.7197L27.125 7.61788V17.7143C26.4906 17.5747 25.8404 17.5026 25.1875 17.4994C21.9785 17.4994 19.375 19.0668 19.375 20.9996C19.375 22.9324 21.9785 24.4998 25.1875 24.4998C28.3965 24.4998 31 22.9329 31 20.9996V1.74847C30.9997 1.47373 30.9278 1.20291 30.7901 0.957921C30.6525 0.712935 30.4529 0.500669 30.2075 0.338304C29.9621 0.175939 29.6779 0.0680361 29.3778 0.0233275C29.0777 -0.0213812 28.7701 -0.00163911 28.48 0.0809559Z" fill="#DF05FF"/>
</svg>
